<svg width="122" height="22" viewBox="0 0 122 22" fill="none" xmlns="http://www.w3.org/2000/svg">
<path d="M6.6491 6.22857C7.81101 6.22857 8.82053 6.43809 9.67767 6.85714C10.5539 7.25714 11.2205 7.82857 11.6777 8.57143C12.1539 9.29524 12.392 10.1238 12.392 11.0571V20.7143C12.392 20.9048 12.2967 21 12.1062 21H9.93482C9.74434 21 9.6491 20.9048 9.6491 20.7143V19.6857C9.6491 19.5905 9.60148 19.5714 9.50625 19.6286C9.01101 20.1429 8.40148 20.5429 7.67767 20.8286C6.97291 21.0952 6.18244 21.2286 5.30625 21.2286C3.89672 21.2286 2.72529 20.8762 1.79196 20.1714C0.877673 19.4476 0.42053 18.3619 0.42053 16.9143C0.42053 15.4286 0.934816 14.2667 1.96339 13.4286C3.01101 12.5714 4.46815 12.1429 6.33482 12.1429H9.53482C9.61101 12.1429 9.6491 12.1048 9.6491 12.0286V11.2571C9.6491 10.419 9.40148 9.77143 8.90625 9.31428C8.43005 8.83809 7.69672 8.6 6.70625 8.6C5.90625 8.6 5.2491 8.7619 4.73482 9.08571C4.23958 9.39047 3.93482 9.80952 3.82053 10.3429C3.76339 10.5333 3.6491 10.619 3.47767 10.6L1.16339 10.2857C0.972911 10.2476 0.887197 10.1714 0.906245 10.0571C1.05863 8.93333 1.65863 8.01905 2.70624 7.31428C3.75386 6.59047 5.06815 6.22857 6.6491 6.22857ZM5.90625 18.9143C6.91577 18.9143 7.79196 18.6476 8.53482 18.1143C9.27767 17.581 9.6491 16.9048 9.6491 16.0857V14.4C9.6491 14.3238 9.61101 14.2857 9.53482 14.2857H6.8491C5.72529 14.2857 4.83005 14.5048 4.16339 14.9429C3.49672 15.381 3.16339 15.9905 3.16339 16.7714C3.16339 17.4762 3.41101 18.0095 3.90625 18.3714C4.42053 18.7333 5.0872 18.9143 5.90625 18.9143ZM22.4663 6.31428C23.0758 6.31428 23.6282 6.43809 24.1234 6.68571C24.2568 6.74286 24.3044 6.85714 24.2663 7.02857L23.8091 9.17143C23.7901 9.34286 23.6758 9.4 23.4663 9.34286C23.1425 9.20952 22.7615 9.14286 22.3234 9.14286L21.9234 9.17143C21.0282 9.20952 20.2853 9.52381 19.6949 10.1143C19.1234 10.6857 18.8377 11.4381 18.8377 12.3714V20.7143C18.8377 20.9048 18.7425 21 18.552 21H16.3806C16.1901 21 16.0949 20.9048 16.0949 20.7143V6.74286C16.0949 6.55238 16.1901 6.45714 16.3806 6.45714H18.552C18.7425 6.45714 18.8377 6.55238 18.8377 6.74286V8.25714C18.8377 8.31428 18.8472 8.35238 18.8663 8.37143C18.9044 8.37143 18.933 8.35238 18.952 8.31428C19.8091 6.98095 20.9806 6.31428 22.4663 6.31428ZM33.069 6.31428C33.6785 6.31428 34.2309 6.43809 34.7261 6.68571C34.8594 6.74286 34.9071 6.85714 34.869 7.02857L34.4118 9.17143C34.3928 9.34286 34.2785 9.4 34.069 9.34286C33.7452 9.20952 33.3642 9.14286 32.9261 9.14286L32.5261 9.17143C31.6309 9.20952 30.888 9.52381 30.2975 10.1143C29.7261 10.6857 29.4404 11.4381 29.4404 12.3714V20.7143C29.4404 20.9048 29.3452 21 29.1547 21H26.9833C26.7928 21 26.6975 20.9048 26.6975 20.7143V6.74286C26.6975 6.55238 26.7928 6.45714 26.9833 6.45714H29.1547C29.3452 6.45714 29.4404 6.55238 29.4404 6.74286V8.25714C29.4404 8.31428 29.4499 8.35238 29.469 8.37143C29.5071 8.37143 29.5356 8.35238 29.5547 8.31428C30.4118 6.98095 31.5833 6.31428 33.069 6.31428ZM43.0199 21.2286C41.6103 21.2286 40.3818 20.8762 39.3341 20.1714C38.2865 19.4476 37.5532 18.4476 37.1341 17.1714C36.7913 16.1429 36.6199 14.981 36.6199 13.6857C36.6199 12.3333 36.7818 11.1905 37.1056 10.2571C37.5246 9 38.258 8.01905 39.3056 7.31428C40.3532 6.59047 41.6008 6.22857 43.0484 6.22857C44.4199 6.22857 45.6103 6.59047 46.6199 7.31428C47.6484 8.01905 48.3818 8.99047 48.8199 10.2286C49.1627 11.2 49.3341 12.3429 49.3341 13.6571C49.3341 14.9905 49.1627 16.1619 48.8199 17.1714C48.4008 18.4476 47.677 19.4476 46.6484 20.1714C45.6199 20.8762 44.4103 21.2286 43.0199 21.2286ZM43.0199 18.8571C43.7818 18.8571 44.4484 18.6476 45.0199 18.2286C45.5913 17.7905 46.0008 17.181 46.2484 16.4C46.458 15.6762 46.5627 14.781 46.5627 13.7143C46.5627 12.6476 46.4675 11.7619 46.277 11.0571C46.0294 10.2762 45.6199 9.67619 45.0484 9.25714C44.477 8.81905 43.7818 8.6 42.9627 8.6C42.1818 8.6 41.5056 8.81905 40.9341 9.25714C40.3627 9.67619 39.9532 10.2762 39.7056 11.0571C39.4961 11.7238 39.3913 12.6095 39.3913 13.7143C39.3913 14.819 39.4961 15.7143 39.7056 16.4C39.9341 17.181 40.3341 17.7905 40.9056 18.2286C41.4961 18.6476 42.2008 18.8571 43.0199 18.8571ZM55.4841 21C55.3318 21 55.227 20.9238 55.1699 20.7714L51.0556 6.77143L51.027 6.68571C51.027 6.53333 51.1222 6.45714 51.3127 6.45714H53.5413C53.7127 6.45714 53.8175 6.54286 53.8556 6.71428L56.5699 17.0857C56.5889 17.1238 56.608 17.1429 56.627 17.1429C56.6651 17.1429 56.6937 17.1238 56.7127 17.0857L59.4841 6.71428C59.5222 6.54286 59.627 6.45714 59.7984 6.45714H61.7699C61.9413 6.45714 62.0461 6.54286 62.0842 6.71428L64.9127 17.0571C64.9318 17.0952 64.9508 17.1143 64.9699 17.1143C65.008 17.1143 65.0365 17.0952 65.0556 17.0571L67.8842 6.71428C67.9222 6.54286 68.027 6.45714 68.1984 6.45714L70.3984 6.48571C70.4937 6.48571 70.5603 6.51428 70.5984 6.57143C70.6556 6.62857 70.6746 6.70476 70.6556 6.8L66.5127 20.7714C66.4556 20.9238 66.3508 21 66.1984 21H63.9699C63.8175 21 63.7127 20.9238 63.6556 20.7714L60.8556 11.1143C60.8365 11.0762 60.808 11.0571 60.7699 11.0571C60.7508 11.0571 60.7318 11.0762 60.7127 11.1143L58.0556 20.7429C58.0175 20.9143 57.9127 21 57.7413 21H55.4841ZM74.1174 21C73.9269 21 73.8317 20.9048 73.8317 20.7143V1.28571C73.8317 1.09524 73.9269 0.999997 74.1174 0.999997H81.0317C83.0126 0.999997 84.5936 1.52381 85.7746 2.57143C86.9555 3.6 87.546 4.98095 87.546 6.71428V15.2857C87.546 17.019 86.9555 18.4095 85.7746 19.4571C84.5936 20.4857 83.0126 21 81.0317 21H74.1174ZM76.5746 18.5143C76.5746 18.5905 76.6126 18.6286 76.6888 18.6286H81.146C82.2507 18.6286 83.1269 18.2952 83.7746 17.6286C84.4412 16.9429 84.7841 16.0286 84.8031 14.8857V7.11428C84.8031 5.97143 84.4698 5.06667 83.8031 4.4C83.1555 3.71428 82.2698 3.37143 81.146 3.37143H76.6888C76.6126 3.37143 76.5746 3.40952 76.5746 3.48571V18.5143ZM102.799 21C102.628 21 102.514 20.9238 102.456 20.7714L101.428 17.4286C101.409 17.3714 101.371 17.3429 101.314 17.3429H93.285C93.2279 17.3429 93.1898 17.3714 93.1708 17.4286L92.1422 20.7714C92.085 20.9238 91.9708 21 91.7993 21H89.485C89.2755 21 89.1993 20.8952 89.2565 20.6857L95.5136 1.22857C95.5708 1.07619 95.685 0.999997 95.8565 0.999997H98.7136C98.885 0.999997 98.9993 1.07619 99.0565 1.22857L105.371 20.6857L105.399 20.8C105.399 20.9333 105.314 21 105.142 21H102.799ZM93.885 15.0286C93.866 15.0667 93.866 15.1048 93.885 15.1429C93.9231 15.1619 93.9612 15.1714 93.9993 15.1714H100.571C100.609 15.1714 100.637 15.1619 100.656 15.1429C100.695 15.1048 100.704 15.0667 100.685 15.0286L97.3708 4.42857C97.3517 4.39047 97.3231 4.37143 97.285 4.37143C97.2469 4.37143 97.2184 4.39047 97.1993 4.42857L93.885 15.0286ZM114.749 21.2571C113.358 21.2571 112.13 20.9714 111.063 20.4C109.997 19.8286 109.168 19.0286 108.577 18C107.987 16.9524 107.692 15.7524 107.692 14.4V7.6C107.692 6.24762 107.987 5.05714 108.577 4.02857C109.168 3 109.997 2.2 111.063 1.62857C112.13 1.05714 113.358 0.771427 114.749 0.771427C116.158 0.771427 117.397 1.05714 118.463 1.62857C119.53 2.2 120.358 3 120.949 4.02857C121.539 5.05714 121.835 6.24762 121.835 7.6V14.4C121.835 15.7524 121.539 16.9524 120.949 18C120.358 19.0286 119.53 19.8286 118.463 20.4C117.397 20.9714 116.158 21.2571 114.749 21.2571ZM114.749 18.8857C116.044 18.8857 117.092 18.4857 117.892 17.6857C118.692 16.8857 119.092 15.8286 119.092 14.5143V7.57143C119.092 6.23809 118.692 5.17143 117.892 4.37143C117.092 3.55238 116.044 3.14286 114.749 3.14286C113.454 3.14286 112.406 3.55238 111.606 4.37143C110.825 5.17143 110.435 6.23809 110.435 7.57143V14.5143C110.435 15.8286 110.825 16.8857 111.606 17.6857C112.406 18.4857 113.454 18.8857 114.749 18.8857Z" fill="url(#paint0_linear)"/>
<defs>
<linearGradient id="paint0_linear" x1="2.40909" y1="26" x2="70.624" y2="-52.4263" gradientUnits="userSpaceOnUse">
<stop stop-color="#85FFC4"/>
<stop offset="0.411458" stop-color="#5CC6FF"/>
<stop offset="0.854167" stop-color="#BC85FF"/>
</linearGradient>
</defs>
</svg>
